<svg width="100" height="100" viewBox="0 0 100 100" xmlns="http://www.w3.org/2000/svg" role="img" aria-labelledby="title desc">
  <title id="title">Imagen no disponible</title>
  <desc id="desc">Ilustración abstracta en tonos cálidos para indicar que no hay imagen.</desc>
  <defs>
    <linearGradient id="placeholderGradient" x1="0" y1="0" x2="1" y2="1">
      <stop offset="0%" stop-color="#F3F4F6" />
      <stop offset="100%" stop-color="#E5E7EB" />
    </linearGradient>
  </defs>
  <rect x="0" y="0" width="100" height="100" fill="url(#placeholderGradient)" rx="12" />
  <g fill="none" stroke="#D1D5DB" stroke-width="4" stroke-linecap="round" stroke-linejoin="round">
    <path d="M24 35c0-6.627 5.373-12 12-12h28c6.627 0 12 5.373 12 12v30c0 6.627-5.373 12-12 12H36c-6.627 0-12-5.373-12-12V35z" />
    <path d="M42 44c2.761 0 5 2.239 5 5s-2.239 5-5 5-5-2.239-5-5 2.239-5 5-5z" />
    <path d="M32 64l12-12 8 8 12-12 4 4" />
  </g>
</svg>

